HIERARCHY
ROOT Hips
{
    OFFSET 0.000000 0.000000 0.000000
    CHANNELS 6 Xposition Yposition Zposition Zrotation Xrotation Yrotation
    JOINT Spine
    {
        OFFSET -0.000000 7.384703 0.000000
        CHANNELS 3 Zrotation Xrotation Yrotation
        JOINT Spine1
        {
            OFFSET -0.000000 22.520039 0.000000
            CHANNELS 3 Zrotation Xrotation Yrotation
            JOINT Neck
            {
                OFFSET -0.000000 22.427553 2.038868
                CHANNELS 3 Zrotation Xrotation Yrotation
                JOINT Head
                {
                    OFFSET -0.000000 12.608030 -1.801147
                    CHANNELS 3 Zrotation Xrotation Yrotation
                    End Site
                    {
                        OFFSET -0.000000 22.514339 0.000000
                    }
                }
            }
            JOINT LeftShoulder
            {
                OFFSET 3.702039 19.556332 -0.329131
                CHANNELS 3 Zrotation Xrotation Yrotation
                JOINT LeftArm
                {
                    OFFSET 13.708566 0.000000 0.000000
                    CHANNELS 3 Zrotation Xrotation Yrotation
                    JOINT LeftForeArm
                    {
                        OFFSET 25.930668 0.000000 0.000000
                        CHANNELS 3 Zrotation Xrotation Yrotation
                        JOINT LeftHand
                        {
                            OFFSET 23.509682 0.000000 0.000000
                            CHANNELS 3 Zrotation Xrotation Yrotation
                            End Site
                            {
                                OFFSET 13.508604 0.000000 0.000000
                            }
                        }
                    }
                }
            }
            JOINT RightShoulder
            {
                OFFSET -3.486946 19.556332 -0.329131
                CHANNELS 3 Zrotation Xrotation Yrotation
                JOINT RightArm
                {
                    OFFSET -13.708566 0.000000 0.000000
                    CHANNELS 3 Zrotation Xrotation Yrotation
                    JOINT RightForeArm
                    {
                        OFFSET -25.930668 0.000000 0.000000
                        CHANNELS 3 Zrotation Xrotation Yrotation
                        JOINT RightHand
                        {
                            OFFSET -23.509682 0.000000 0.000000
                            CHANNELS 3 Zrotation Xrotation Yrotation
                            End Site
                            {
                                OFFSET -13.508604 0.000000 0.000000
                            }
                        }
                    }
                }
            }
        }
    }
    JOINT LeftUpLeg
    {
        OFFSET 9.005735 0.000000 0.000000
        CHANNELS 3 Zrotation Xrotation Yrotation
        JOINT LeftLeg
        {
            OFFSET -0.000000 -37.338741 0.000000
            CHANNELS 3 Zrotation Xrotation Yrotation
            JOINT LeftFoot
            {
                OFFSET -0.000000 -36.154961 0.000000
                CHANNELS 3 Zrotation Xrotation Yrotation
                JOINT LeftToeBase
                {
                    OFFSET -0.000000 -5.853728 13.508604
                    CHANNELS 3 Zrotation Xrotation Yrotation
                    End Site
                    {
                        OFFSET -0.000000 0.000000 3.602294
                    }
                }
            }
        }
    }
    JOINT RightUpLeg
    {
        OFFSET -9.005735 0.000000 0.000000
        CHANNELS 3 Zrotation Xrotation Yrotation
        JOINT RightLeg
        {
            OFFSET -0.000000 -37.338741 0.000000
            CHANNELS 3 Zrotation Xrotation Yrotation
            JOINT RightFoot
            {
                OFFSET -0.000000 -36.154961 0.000000
                CHANNELS 3 Zrotation Xrotation Yrotation
                JOINT RightToeBase
                {
                    OFFSET -0.000000 -5.853728 13.508604
                    CHANNELS 3 Zrotation Xrotation Yrotation
                    End Site
                    {
                        OFFSET -0.000000 0.000000 3.602294
                    }
                }
            }
        }
    }
}
MOTION
Frames:    14
Frame Time:    0.004000
16.922071    74.598053    -193.739105    -0.283582    5.929679    5.344335    -3.298539    -7.405953    0.506095    0.875150    -4.414080    0.753435    7.709033    22.479343    -0.684404    -1.937297    -1.954189    -0.559427    21.370628    -3.331447    -4.242815    -27.641897    -1.663233    2.758036    3.345760    4.827414    0.964085    -6.043955    4.842558    -0.821014    -16.473881    -2.555013    -2.348759    18.890272    0.639172    2.455136    -1.912096    1.073343    0.997248    -6.519720    1.132915    -0.753644    -0.532824    -10.111465    0.709303    -2.653267    16.962624    7.676393    0.752042    -13.154929    -0.116539    0.000000    0.000000    0.000000    -1.685758    -4.126008    -0.166776    7.385818    12.130780    -4.496282    -5.741669    -13.883091    -19.576757    0.000000    0.000000    0.000000    
16.948547    74.599907    -193.740387    -0.303140    5.920258    5.338351    -3.284001    -7.395120    0.505581    0.874224    -4.426414    0.751690    7.697403    22.467695    -0.675663    -1.925752    -1.934487    -0.549777    21.376966    -3.335695    -4.244358    -27.628654    -1.657868    2.764547    3.341905    4.833088    0.950867    -6.031126    4.848868    -0.827256    -16.471535    -2.557732    -2.343268    18.890142    0.649133    2.463560    -1.905047    1.062591    0.999162    -6.569192    1.122503    -0.753870    -0.523889    -10.103687    0.711845    -2.666692    16.966507    7.660205    0.778414    -13.170712    -0.107097    0.000000    0.000000    0.000000    -1.708178    -4.163078    -0.082867    7.449711    12.195158    -4.692943    -5.706140    -13.884805    -19.472662    0.000000    0.000000    0.000000    
16.963530    74.599197    -193.740906    -0.306945    5.912804    5.329688    -3.282557    -7.390615    0.508183    0.883494    -4.422145    0.754362    7.699166    22.464495    -0.670018    -1.944016    -1.943589    -0.547105    21.371952    -3.356113    -4.244410    -27.628567    -1.639045    2.773964    3.344088    4.828568    0.946515    -6.060070    4.845339    -0.840115    -16.476854    -2.554991    -2.348972    18.885347    0.638724    2.478584    -1.895799    1.072519    0.998775    -6.565975    1.132841    -0.762818    -0.530409    -10.098967    0.727438    -2.661386    16.971560    7.651664    0.769678    -13.171587    -0.102613    0.000000    0.000000    0.000000    -1.715236    -4.162914    -0.082706    7.454981    12.205136    -4.698460    -5.711139    -13.884859    -19.467115    0.000000    0.000000    0.000000    
16.978127    74.599915    -193.742615    -0.313194    5.908712    5.323667    -3.281271    -7.383617    0.507108    0.891329    -4.431572    0.753434    7.687047    22.455233    -0.664539    -1.935734    -1.924735    -0.541233    21.371702    -3.366482    -4.258158    -27.621796    -1.646899    2.800868    3.342360    4.838901    0.931874    -6.081083    4.854939    -0.814828    -16.475805    -2.554413    -2.335246    18.871325    0.614024    2.471142    -1.869251    1.075831    1.013314    -6.657990    1.135951    -0.748665    -0.534668    -10.096448    0.726532    -2.660517    16.977364    7.651212    0.811608    -13.171881    -0.112193    0.000000    0.000000    0.000000    -1.720640    -4.166276    -0.059621    7.463741    12.216064    -4.705075    -5.691148    -13.885630    -19.492455    0.000000    0.000000    0.000000    
16.993019    74.600807    -193.742065    -0.323984    5.896146    5.319040    -3.269175    -7.376550    0.508158    0.888796    -4.425977    0.753339    7.687248    22.448668    -0.663622    -1.939430    -1.923438    -0.541061    21.379782    -3.379565    -4.260940    -27.620222    -1.646991    2.813148    3.334199    4.842720    0.918879    -6.069160    4.858919    -0.811012    -16.478359    -2.558476    -2.339033    18.881311    0.626392    2.487429    -1.882552    1.078157    1.006197    -6.596162    1.137473    -0.741554    -0.532609    -10.083523    0.735013    -2.661466    16.979282    7.687538    0.791872    -13.192976    -0.152247    0.000000    0.000000    0.000000    -1.720400    -4.159519    -0.046579    7.463622    12.219663    -4.729769    -5.661309    -13.873061    -19.463474    0.000000    0.000000    0.000000    
17.006870    74.600899    -193.742874    -0.330657    5.890846    5.309792    -3.264836    -7.368745    0.506959    0.894991    -4.435646    0.751861    7.668507    22.444052    -0.652100    -1.927088    -1.912903    -0.528664    21.377987    -3.371081    -4.245569    -27.617846    -1.638564    2.797724    3.332878    4.844108    0.925231    -6.082011    4.859897    -0.805104    -16.478155    -2.560427    -2.320954    18.867712    0.610858    2.480515    -1.867170    1.084212    1.020424    -6.584151    1.144519    -0.759787    -0.533055    -10.078856    0.752171    -2.659880    16.980864    7.620662    0.822050    -13.182550    -0.089589    0.000000    0.000000    0.000000    -1.725378    -4.165697    -0.042933    7.473417    12.242886    -4.720379    -5.695117    -13.878760    -19.480597    0.000000    0.000000    0.000000    
17.022169    74.600311    -193.746536    -0.332980    5.891552    5.307017    -3.264416    -7.370379    0.507419    0.896235    -4.430062    0.752456    7.675584    22.438282    -0.655500    -1.940151    -1.924111    -0.534360    21.384338    -3.374075    -4.256235    -27.630720    -1.614285    2.807659    3.358118    4.822291    0.920059    -6.141001    4.838826    -0.812257    -16.478041    -2.562871    -2.323671    18.869390    0.623840    2.488783    -1.878804    1.075031    1.013207    -6.570793    1.134240    -0.741570    -0.545933    -10.083530    0.747107    -2.652040    16.990393    7.648389    0.807422    -13.193703    -0.109280    0.000000    0.000000    0.000000    -1.736736    -4.177829    -0.036422    7.479195    12.255391    -4.708088    -5.664754    -13.872663    -19.497719    0.000000    0.000000    0.000000    
17.033695    74.599472    -193.744827    -0.345218    5.878998    5.301161    -3.262465    -7.361802    0.507788    0.912452    -4.432844    0.753075    7.660045    22.442076    -0.648928    -1.927674    -1.924651    -0.526148    21.376659    -3.379876    -4.249378    -27.626141    -1.589878    2.795977    3.351290    4.826340    0.930489    -6.115030    4.842976    -0.822078    -16.477095    -2.566998    -2.318801    18.863623    0.638327    2.489010    -1.880686    1.074972    1.021341    -6.569903    1.134289    -0.740588    -0.534617    -10.071707    0.742944    -2.671362    16.990862    7.654017    0.853616    -13.195537    -0.099268    0.000000    0.000000    0.000000    -1.728083    -4.171081    -0.044293    7.470298    12.270871    -4.705516    -5.642494    -13.880791    -19.490051    0.000000    0.000000    0.000000    
17.050896    74.600296    -193.747665    -0.344212    5.875647    5.290627    -3.266611    -7.356936    0.508342    0.924448    -4.435755    0.754220    7.631063    22.429165    -0.641416    -1.902281    -1.906447    -0.516777    21.375668    -3.372509    -4.255919    -27.622574    -1.613236    2.807232    3.342274    4.829335    0.921169    -6.134032    4.846085    -0.815235    -16.487030    -2.565984    -2.306985    18.863821    0.628127    2.488437    -1.880231    1.081370    1.023979    -6.544088    1.140411    -0.738641    -0.550647    -10.067682    0.748709    -2.663749    16.992374    7.649002    0.850877    -13.205154    -0.096557    0.000000    0.000000    0.000000    -1.746700    -4.181414    -0.029642    7.483428    12.292289    -4.716860    -5.638484    -13.877902    -19.485985    0.000000    0.000000    0.000000    
17.064491    74.601021    -193.746750    -0.352139    5.864251    5.288138    -3.259471    -7.351055    0.507878    0.924067    -4.431849    0.753103    7.624228    22.434975    -0.643589    -1.893193    -1.919966    -0.517821    21.374619    -3.373318    -4.255904    -27.618710    -1.588366    2.804487    3.352028    4.809319    0.917728    -6.168931    4.825773    -0.805020    -16.480190    -2.568147    -2.305290    18.866318    0.674414    2.499298    -1.904269    1.053519    1.014171    -6.513829    1.111828    -0.727859    -0.547317    -10.058080    0.742904    -2.670445    17.000090    7.660914    0.830669    -13.208241    -0.103874    0.000000    0.000000    0.000000    -1.746829    -4.175347    -0.044181    7.481134    12.303069    -4.706445    -5.614834    -13.879726    -19.488094    0.000000    0.000000    0.000000    
17.077303    74.599228    -193.748398    -0.359955    5.862216    5.281458    -3.254522    -7.348847    0.509688    0.922414    -4.431385    0.754398    7.636228    22.410152    -0.638675    -1.902630    -1.892369    -0.515081    21.389738    -3.369429    -4.249527    -27.623255    -1.602976    2.790141    3.339212    4.804913    0.922825    -6.135385    4.822535    -0.831985    -16.469612    -2.565152    -2.308873    18.858370    0.676924    2.507246    -1.900222    1.046226    1.024731    -6.538579    1.105130    -0.733333    -0.546979    -10.055974    0.766631    -2.668324    16.996922    7.632677    0.857180    -13.215925    -0.091660    0.000000    0.000000    0.000000    -1.746625    -4.189761    -0.052826    7.474823    12.336388    -4.693127    -5.625431    -13.878082    -19.480822    0.000000    0.000000    0.000000    
17.091915    74.599312    -193.748993    -0.364480    5.851976    5.271660    -3.255159    -7.341445    0.511080    0.938966    -4.430003    0.756334    7.621518    22.421015    -0.641708    -1.903689    -1.912411    -0.518777    21.374207    -3.359833    -4.249351    -27.614183    -1.593509    2.785775    3.333380    4.798599    0.927380    -6.136211    4.815151    -0.813627    -16.484028    -2.564089    -2.296644    18.863939    0.663234    2.504832    -1.903080    1.052200    1.025483    -6.504357    1.110947    -0.733514    -0.550577    -10.045497    0.765124    -2.667633    17.000172    7.632271    0.868363    -13.214069    -0.092060    0.000000    0.000000    0.000000    -1.755628    -4.183025    -0.026165    7.492961    12.339789    -4.699341    -5.619539    -13.872739    -19.511950    0.000000    0.000000    0.000000    
17.106325    74.600418    -193.750015    -0.371680    5.845872    5.267335    -3.242276    -7.339729    0.511341    0.924356    -4.424622    0.755124    7.624683    22.416191    -0.635051    -1.891649    -1.914296    -0.509916    21.388170    -3.372229    -4.247490    -27.623222    -1.574636    2.785438    3.347271    4.785281    0.931266    -6.164758    4.802009    -0.816941    -16.471619    -2.566310    -2.295264    18.852228    0.640300    2.513995    -1.884477    1.073539    1.022214    -6.493904    1.131673    -0.728019    -0.553642    -10.039887    0.775852    -2.663015    17.002457    7.628717    0.877830    -13.219117    -0.101434    0.000000    0.000000    0.000000    -1.759901    -4.190029    -0.034764    7.487359    12.364540    -4.674781    -5.596249    -13.882210    -19.509907    0.000000    0.000000    0.000000    
17.121418    74.601044    -193.751511    -0.376780    5.838761    5.264154    -3.245584    -7.331948    0.512436    0.938203    -4.429299    0.756740    7.611798    22.410574    -0.635836    -1.882034    -1.902381    -0.510408    21.383635    -3.341388    -4.243929    -27.623077    -1.603201    2.754048    3.348088    4.791830    0.939553    -6.185416    4.808555    -0.819129    -16.475452    -2.565663    -2.293783    18.859852    0.668079    2.516143    -1.952119    1.113202    1.014921    -6.201155    1.170224    -0.732859    -0.559204    -10.039377    0.776902    -2.664116    17.013205    7.630476    0.907282    -13.222309    -0.101678    0.000000    0.000000    0.000000    -1.766587    -4.193097    -0.028410    7.492743    12.381159    -4.685015    -5.560710    -13.887709    -19.511841    0.000000    0.000000    0.000000    
